<svg width="1024" height="1024" viewBox="0 0 1024 1024" fill="none" xmlns="http://www.w3.org/2000/svg">
<path d="M928 161H699.2C650.1 161 602.1 175.1 560.8 201.7L512 233L463.2 201.7C421.941 175.105 373.888 160.974 324.8 161H96C78.3 161 64 175.3 64 193V761C64 778.7 78.3 793 96 793H324.8C373.9 793 421.9 807.1 463.2 833.7L507.6 862.3C508.9 863.1 510.4 863.6 511.9 863.6C513.4 863.6 514.9 863.2 516.2 862.3L560.6 833.7C602 807.1 650.1 793 699.2 793H928C945.7 793 960 778.7 960 761V193C960 175.3 945.7 161 928 161ZM324.8 721H136V233H324.8C360.2 233 394.6 243.1 424.3 262.2L473.1 293.5L480 298V760C432.4 734.4 379.2 721 324.8 721ZM888 721H699.2C644.8 721 591.6 734.4 544 760V298L550.9 293.5L599.7 262.2C629.4 243.1 663.8 233 699.2 233H888V721ZM396.9 361H211.1C207.2 361 204 364.4 204 368.5V413.5C204 417.6 207.2 421 211.1 421H396.8C400.7 421 403.9 417.6 403.9 413.5V368.5C404 364.4 400.8 361 396.9 361ZM620 368.5V413.5C620 417.6 623.2 421 627.1 421H812.8C816.7 421 819.9 417.6 819.9 413.5V368.5C819.9 364.4 816.7 361 812.8 361H627.1C623.2 361 620 364.4 620 368.5ZM396.9 501H211.1C207.2 501 204 504.4 204 508.5V553.5C204 557.6 207.2 561 211.1 561H396.8C400.7 561 403.9 557.6 403.9 553.5V508.5C404 504.4 400.8 501 396.9 501ZM812.9 501H627.1C623.2 501 620 504.4 620 508.5V553.5C620 557.6 623.2 561 627.1 561H812.8C816.7 561 819.9 557.6 819.9 553.5V508.5C820 504.4 816.8 501 812.9 501Z" fill="#3FBFB9"/>
</svg>
