<svg width="1024" height="1024" viewBox="0 0 1024 1024" fill="none" xmlns="http://www.w3.org/2000/svg">
<path d="M842 454C842 449.6 838.4 446 834 446H774C769.6 446 766 449.6 766 454C766 594.3 652.3 708 512 708C371.7 708 258 594.3 258 454C258 449.6 254.4 446 250 446H190C185.6 446 182 449.6 182 454C182 622.7 308.6 761.9 472 781.6V884H326.7C313 884 302 898.3 302 916V952C302 956.4 304.8 960 308.2 960H715.8C719.2 960 722 956.4 722 952V916C722 898.3 711 884 697.3 884H548V782.1C713.3 764.1 842 624.1 842 454ZM512 624C605.9 624 682 548.8 682 456V232C682 139.2 605.9 64 512 64C418.1 64 342 139.2 342 232V456C342 548.8 418.1 624 512 624ZM418 232C418 181.4 459.9 140 512 140C564.1 140 606 181.4 606 232V456C606 506.6 564.1 548 512 548C459.9 548 418 506.6 418 456V232Z" fill="#283618"/>
</svg>
