<svg width="1024" height="1024" viewBox="0 0 1024 1024" fill="none" xmlns="http://www.w3.org/2000/svg">
<path d="M880 112H144C126.3 112 112 126.3 112 144V880C112 897.7 126.3 912 144 912H880C897.7 912 912 897.7 912 880V144C912 126.3 897.7 112 880 112ZM840 840H184V184H840V840ZM492 400H676C680.4 400 684 396.4 684 392V344C684 339.6 680.4 336 676 336H492C487.6 336 484 339.6 484 344V392C484 396.4 487.6 400 492 400ZM492 544H676C680.4 544 684 540.4 684 536V488C684 483.6 680.4 480 676 480H492C487.6 480 484 483.6 484 488V536C484 540.4 487.6 544 492 544ZM492 688H676C680.4 688 684 684.4 684 680V632C684 627.6 680.4 624 676 624H492C487.6 624 484 627.6 484 632V680C484 684.4 487.6 688 492 688ZM340 368C340 378.609 344.214 388.783 351.716 396.284C359.217 403.786 369.391 408 380 408C390.609 408 400.783 403.786 408.284 396.284C415.786 388.783 420 378.609 420 368C420 357.391 415.786 347.217 408.284 339.716C400.783 332.214 390.609 328 380 328C369.391 328 359.217 332.214 351.716 339.716C344.214 347.217 340 357.391 340 368V368ZM340 512C340 522.609 344.214 532.783 351.716 540.284C359.217 547.786 369.391 552 380 552C390.609 552 400.783 547.786 408.284 540.284C415.786 532.783 420 522.609 420 512C420 501.391 415.786 491.217 408.284 483.716C400.783 476.214 390.609 472 380 472C369.391 472 359.217 476.214 351.716 483.716C344.214 491.217 340 501.391 340 512ZM340 656C340 666.609 344.214 676.783 351.716 684.284C359.217 691.786 369.391 696 380 696C390.609 696 400.783 691.786 408.284 684.284C415.786 676.783 420 666.609 420 656C420 645.391 415.786 635.217 408.284 627.716C400.783 620.214 390.609 616 380 616C369.391 616 359.217 620.214 351.716 627.716C344.214 635.217 340 645.391 340 656V656Z" fill="#F7CB4F"/>
</svg>
