<svg width="1024" height="1024" viewBox="0 0 1024 1024" fill="none" xmlns="http://www.w3.org/2000/svg">
<path d="M912 302.3L784 376V224C784 188.7 755.3 160 720 160H128C92.7 160 64 188.7 64 224V800C64 835.3 92.7 864 128 864H720C755.3 864 784 835.3 784 800V648L912 721.7C933.3 734 960 718.6 960 694.1V330C960 305.4 933.3 290 912 302.3ZM712 792H136V232H712V792ZM888 625L784 565.2V458.9L888 399V625ZM208 360H320C324.4 360 328 356.4 328 352V304C328 299.6 324.4 296 320 296H208C203.6 296 200 299.6 200 304V352C200 356.4 203.6 360 208 360Z" fill="#F79257"/>
</svg>
